<svg width="31" height="27" viewBox="0 0 31 27" fill="none" xmlns="http://www.w3.org/2000/svg">
<g clip-path="url(#clip0_952_5)">
<path d="M28.5028 22.5544L4.25104 1.3522C3.39682 0.605403 2.09894 0.692478 1.35214 1.54669C0.605345 2.40091 0.692423 3.69879 1.54664 4.44559L25.7984 25.6478C26.6526 26.3946 27.9505 26.3075 28.6973 25.4533C29.4441 24.5991 29.357 23.3012 28.5028 22.5544Z" fill="#F4EBDC"/>
<path d="M1.54679 22.5544L25.7985 1.35221C26.6527 0.605403 27.9506 0.692478 28.6974 1.54669C29.4442 2.40091 29.3571 3.69879 28.5029 4.44559L4.25119 25.6478C3.39697 26.3946 2.09909 26.3075 1.35229 25.4533C0.605493 24.5991 0.69257 23.3012 1.54679 22.5544Z" fill="#F4EBDC"/>
</g>
<defs>
<clipPath id="clip0_952_5">
<rect width="31" height="27" fill="white"/>
</clipPath>
</defs>
</svg>
