<svg width="26" height="27" viewBox="0 0 26 27" fill="none" xmlns="http://www.w3.org/2000/svg">
<path d="M25.9565 18.7112C25.0353 20.9049 23.5539 22.8165 21.6616 24.2534C19.7693 25.6903 17.5329 26.6018 15.1775 26.8961C12.8222 27.1903 10.4312 26.857 8.24516 25.9296C6.05917 25.0023 4.15543 23.5136 2.72567 21.6136C1.29591 19.7135 0.390621 17.4692 0.100965 15.1066C-0.188691 12.7441 0.147518 10.3467 1.07573 8.15587C2.00394 5.96508 3.49139 4.05825 5.38826 2.62742C7.28514 1.1966 9.52446 0.292293 11.8807 0.00558356C12.0442 -0.0139948 12.2097 0.0182007 12.354 0.0976602C12.4983 0.17712 12.6142 0.299862 12.6855 0.448694C12.76 0.594777 12.7865 0.760813 12.7609 0.922907C12.7354 1.085 12.6593 1.2348 12.5435 1.35074C11.5762 2.31308 10.8111 3.46012 10.2935 4.72406C9.77578 5.988 9.51601 7.34319 9.5295 8.70954C9.54339 10.5055 10.0209 12.2672 10.9156 13.823C11.8102 15.3789 13.0915 16.6757 14.6345 17.5873C16.1775 18.4989 17.9297 18.9941 19.7203 19.0246C21.5109 19.0552 23.2788 18.6201 24.8519 17.7616C24.998 17.6861 25.1633 17.6562 25.3265 17.676C25.4897 17.6957 25.6432 17.7642 25.7671 17.8724C25.8727 17.9811 25.9463 18.117 25.9797 18.265C26.0132 18.413 26.0051 18.5674 25.9565 18.7112Z" fill="#F4EBDC"/>
</svg>
